<svg width="42" height="38" viewBox="0 0 42 38" fill="none" xmlns="http://www.w3.org/2000/svg">
<g filter="url(#filter0_d_7_47)">
<path d="M4.87097 35.2689H1V19.3549L16.8064 25.8065L4.87097 35.2689Z" fill="black"/>
<path d="M13.2581 28.6022L1 21.2903L15.4086 26.8817L13.2581 28.6022Z" fill="white" fill-opacity="0.52"/>
<path d="M37.1554 2.67029e-05H41V15.914L25.3011 9.46239L37.1554 2.67029e-05Z" fill="black"/>
<g filter="url(#filter1_d_7_47)">
<path d="M1 21.2903V11.6129C1.00002 10.9677 1.21505 10.5376 1.90417 10.7527L41 27.5269V35.2688H33.2581L1 21.2903Z" fill="white"/>
</g>
<path d="M28.957 6.55905L41 13.7634L26.914 8.17195L28.957 6.55905Z" fill="white" fill-opacity="0.5"/>
<g filter="url(#filter2_d_7_47)">
<path d="M41 13.7635L41 23.4409C41 24.0861 40.6139 24.5162 39.9247 24.3011L1.00001 7.74198V4.3869e-05L8.957 4.3869e-05L41 13.7635Z" fill="white"/>
</g>
</g>
<defs>
<filter id="filter0_d_7_47" x="1" y="3.05176e-05" width="40" height="37.2689" filterUnits="userSpaceOnUse" color-interpolation-filters="sRGB">
<feFlood flood-opacity="0" result="BackgroundImageFix"/>
<feColorMatrix in="SourceAlpha" type="matrix" values="0 0 0 0 0 0 0 0 0 0 0 0 0 0 0 0 0 0 127 0" result="hardAlpha"/>
<feOffset dy="2"/>
<feColorMatrix type="matrix" values="0 0 0 0 0 0 0 0 0 0 0 0 0 0 0 0 0 0 0.25 0"/>
<feBlend mode="normal" in2="BackgroundImageFix" result="effect1_dropShadow_7_47"/>
<feBlend mode="normal" in="SourceGraphic" in2="effect1_dropShadow_7_47" result="shape"/>
</filter>
<filter id="filter1_d_7_47" x="0" y="10.6967" width="42" height="26.5721" filterUnits="userSpaceOnUse" color-interpolation-filters="sRGB">
<feFlood flood-opacity="0" result="BackgroundImageFix"/>
<feColorMatrix in="SourceAlpha" type="matrix" values="0 0 0 0 0 0 0 0 0 0 0 0 0 0 0 0 0 0 127 0" result="hardAlpha"/>
<feOffset dy="1"/>
<feGaussianBlur stdDeviation="0.5"/>
<feColorMatrix type="matrix" values="0 0 0 0 0 0 0 0 0 0 0 0 0 0 0 0 0 0 0.25 0"/>
<feBlend mode="normal" in2="BackgroundImageFix" result="effect1_dropShadow_7_47"/>
<feBlend mode="normal" in="SourceGraphic" in2="effect1_dropShadow_7_47" result="shape"/>
</filter>
<filter id="filter2_d_7_47" x="0" y="3.05176e-05" width="42" height="26.357" filterUnits="userSpaceOnUse" color-interpolation-filters="sRGB">
<feFlood flood-opacity="0" result="BackgroundImageFix"/>
<feColorMatrix in="SourceAlpha" type="matrix" values="0 0 0 0 0 0 0 0 0 0 0 0 0 0 0 0 0 0 127 0" result="hardAlpha"/>
<feOffset dy="1"/>
<feGaussianBlur stdDeviation="0.5"/>
<feColorMatrix type="matrix" values="0 0 0 0 0 0 0 0 0 0 0 0 0 0 0 0 0 0 0.25 0"/>
<feBlend mode="normal" in2="BackgroundImageFix" result="effect1_dropShadow_7_47"/>
<feBlend mode="normal" in="SourceGraphic" in2="effect1_dropShadow_7_47" result="shape"/>
</filter>
</defs>
</svg>
